/* XPM */
static char *affaa626264f4e55ba221bde4523696dpLg3GXURRrB3iyG5[] = {
/* columns rows colors chars-per-pixel */
"64 64 140 2 ",
"   c black",
".  c #080800",
"X  c #0B0B00",
"o  c #0F0F00",
"O  c #101000",
"+  c #161600",
"@  c #181800",
"#  c #1F1F00",
"$  c #2A000F",
"%  c #3C0016",
"&  c #202000",
"*  c #272700",
"=  c #2A2A00",
"-  c #2F2F00",
";  c #303000",
":  c #343400",
">  c #363600",
",  c #3B3B00",
"<  c #3F3F00",
"1  c #4A001A",
"2  c #4C001B",
"3  c #5A0020",
"4  c #600022",
"5  c #6F0028",
"6  c #700028",
"7  c #792020",
"8  c #404000",
"9  c #454500",
"0  c #4A4A00",
"q  c #4C4C00",
"w  c #515100",
"e  c #595900",
"r  c #5B5B00",
"t  c #636300",
"y  c #666600",
"u  c #6F6F00",
"i  c #707000",
"p  c #767600",
"a  c #797900",
"s  c #7B7B00",
"d  c #130059",
"f  c #14005B",
"g  c #140060",
"h  c #38007B",
"j  c #860031",
"k  c #8F0034",
"l  c #9C0038",
"z  c #A60B38",
"x  c #A11034",
"c  c #B30041",
"v  c #BF0045",
"b  c #C40047",
"n  c #C90049",
"m  c #CC0049",
"M  c #CF004B",
"N  c #D0004B",
"B  c #D2004C",
"V  c #DF0050",
"C  c #E90054",
"Z  c #EF0056",
"A  c #F40059",
"S  c #FF005C",
"D  c #DF0076",
"F  c #D7007C",
"G  c #EE006A",
"H  c #808000",
"J  c #848400",
"K  c #898900",
"L  c #8F8F00",
"P  c #909000",
"I  c #9F9F00",
"U  c #A4A400",
"Y  c #A5A500",
"T  c #A6A600",
"R  c #A8A800",
"E  c #AEAE00",
"W  c #B5B500",
"Q  c #BABA00",
"!  c #BFBF00",
"~  c #C0C000",
"^  c #CFCF00",
"/  c #D0D000",
"(  c #D6D600",
")  c #D8D800",
"_  c #DFDF00",
"`  c #E1E100",
"'  c #E7E700",
"]  c #E9E900",
"[  c #EFEF00",
"{  c #F0F000",
"}  c #F5F500",
"|  c yellow",
" . c #1C0080",
".. c #1D0086",
"X. c #1D0088",
"o. c #1F008F",
"O. c #1F0092",
"+. c #2700B3",
"@. c #2700B5",
"#. c #710090",
"$. c #6900A1",
"%. c #7B00BC",
"&. c #2900C0",
"*. c #2C00C9",
"=. c #2E00D5",
"-. c #2F00D9",
";. c #3000DF",
":. c #3000E0",
">. c #3200E7",
",. c #3300E9",
"<. c #3300EC",
"1. c #3400EF",
"2. c #3500F3",
"3. c #3500F7",
"4. c #3700FF",
"5. c #3F00F9",
"6. c #4200D1",
"7. c #4C00D5",
"8. c #5F00DF",
"9. c #7200CE",
"0. c #6900D6",
"q. c #6500DA",
"w. c #6200DD",
"e. c #4300E7",
"r. c #5A00E2",
"t. c #5D00E0",
"y. c #5000EB",
"u. c #4400F5",
"i. c #4800F1",
"p. c #91009C",
"a. c #A70095",
"s. c #B90095",
"d. c #8600AC",
"f. c #8F00B7",
"g. c #9600B1",
"h. c #A800A3",
"j. c #A800A4",
"k. c #A000A9",
"l. c #D00082",
"z. c #8400C0",
/* pixels */
"4.4.4.4.4.4.4.4.4.4.4.4.4.4.4.4.4.4.4.4.2.>.>.>.>.>.&.                  d -.-.-.-.-.-.1.4.4.4.4.4.4.4.4.4.4.4.4.4.4.4.4.4.4.4.4.",
"4.4.4.4.4.4.4.4.4.4.4.4.4.4.4.4.4.4.3.>.&.          . @ @ @ @ @ * * * * * o           d 1.4.4.4.4.4.4.4.4.4.4.4.4.4.4.4.4.4.4.4.",
"4.4.4.4.4.4.4.4.4.4.4.4.4.4.4.4.4.3.&.    . @ @ @ @ 8 | | | | | | | | | | Y * * o       d -.1.4.4.4.4.4.4.4.4.4.4.4.4.4.4.4.4.4.",
"4.4.4.4.4.4.4.4.4.4.4.4.4.4.4.3.>.&.. @ @ 8 | | | | | | | | | | | | | | | | | | Y * * * * o d -.2.4.4.4.4.4.4.4.4.4.4.4.4.4.4.4.",
"4.4.4.4.4.4.4.4.4.4.4.4.4.4.4.&.. @ 8 | | | | | | | | | | | | | | | | | | | | | | | | | | Y O   o.2.4.4.4.4.4.4.4.4.4.4.4.4.4.4.",
"4.4.4.4.4.4.4.4.4.4.4.4.4.4.4.. < | | | | | | | | | | | | | | | | | | | | | | | | | | | | | Y * o +.2.4.4.4.4.4.4.4.4.4.4.4.4.4.",
"4.4.4.4.4.4.4.4.4.4.4.4.4.4.  < | | | | | | | | | | | | | | | | | | | | | | | | | | | | | | | | 0   +.2.2.4.4.4.4.4.4.4.4.4.4.4.",
"4.4.4.4.4.4.4.4.4.4.4.4.4.    | | | | | | | | | | | | | | | | | | | | | | | | | | | | | | | | | u o .   +.2.4.4.4.4.4.4.4.4.4.4.",
"4.4.4.4.4.4.4.4.4.4.4.      | | | | | | | | | | | | | | | | | | | | | | | | | | | | | | | | | | | | 0     +.4.4.4.4.4.4.4.4.4.4.",
"4.4.4.4.4.4.4.4.4.4.      | | | | | | | | | | | | | | | | | | | | | | | | | | | | | | | | | | | | | q o   +.2.4.4.4.4.4.4.4.4.4.",
"4.4.4.4.4.4.4.4.4.4.    | | | | | | | | | | | | | | | | | | | | | | | | | | | | | | | | | | | | | | | q     +.2.4.4.4.4.4.4.4.4.",
"4.4.4.4.4.4.4.4.4.    | | | | | | } ' ' ' ' { | | | | | | | | | | | | | | | | | | | | | | | | | | | | q o     +.4.4.4.4.4.4.4.4.",
"4.4.4.4.4.4.4.4.    | | | | | | } ~         ; | | | | | | | } ' ) ) [ | | | | | | ] ) ) ) { | | | | | | q o   +.2.4.4.4.4.4.4.4.",
"4.4.4.4.4.4.4.4.    | | | | | | ^           ; | | | | | | } ~       e [ | | | | | P       e [ | | | | | | q .   +.4.4.4.4.4.4.4.",
"4.4.4.4.4.4.4.    | | | | | | | ^           * { | | | | | ^           u | | | | ] H         e { | | | | | | q . +.2.4.4.4.4.4.4.",
"4.4.4.4.4.3.&.# | | | | | | | [ P             w | | | | | E           K | | | | p             y [ | | | | | | 8   O.2.4.4.4.4.4.",
"4.4.4.4.4.>.. 8 | | | | | | | ^               9 | | | | ` P           p | | | | K               W | | | | | | p @   @.4.4.4.4.4.",
"4.4.4.4.4.>.@ | | | | | | | | ^               = ( | | | Q             0 ( | | | J               W | | | | | | | q   ..>.4.4.4.4.",
"4.4.4.4.4.>.@ | | | | | | | | ` =               9 | | | Q               a | | | K               W | | | | | | | a @   @.4.4.4.4.",
"4.4.4.4.3.&.@ | | | | | | | | | Q             # u | | | Q               p | | | K             - ^ | | | | | | | | 0   @.4.4.4.4.",
"4.4.4.4.>.  @ | | | | | | | | | Q             9 | | | | Q             - I | | | K             a | | | | | | | | | p @ X.>.4.4.4.",
"4.4.4.4.>.. < | | | | | | | | | ( =         # u | | | | Q             p | | | | W =           p | | | | | | | | | | q   @.4.4.4.",
"4.4.4.4.>.@ | | | | | | | | | | | Q         8 | | | | | Q           ; I | | | | | J           p | | | | | | | | | | 0   @.4.4.4.",
"4.4.4.4.>.@ | | | | | | | | | | | ( 9 =   # u | | | | | ( =         p | | | | | | K         ; I | | | | | | | | | | 0   @.4.4.4.",
"4.4.4.4.>.O ) | | | | | | | | | | | | ( = 9 | | | | | | | ( =     ; I | | | | | | W =     - I | | | | | | | | | | | p @ X.>.4.4.",
"4.4.4.4.>.  @ | | | | | | | | | | | | | ( u | | | | | | | | Q   - I | | | | | | | | K     p | | | | | | | | | | | | | 0   @.4.4.",
"4.4.4.4.>.  @ | | | | | | | | | | | | | | | | | | | | | | | ( 9 I | | | | | | | | | K   - I | | | | | | | | | | | | | 0   @.4.4.",
"4.4.4.4.>.. < | | | | | | | | | | | | | | | | | | | | | | | | | | | | | | | | | | | W = p | | | | | | | | | | | | | | 0   @.4.4.",
"4.4.4.4.>.@ | | | | | | | } ^ E ( | | | | | | | | | | | | | | | | | | | | | | | | | | W I | | | W ' | | | | | | | | | 0   @.4.4.",
"4.4.4.4.>.o ) | | | } ^ ^ ~     9 | | | | | | | | | | | | | | | | | | | | | | | | | | | | | / R ; K ' | | | | | | | | 0   @.4.4.",
"4.4.4.3.&.  @ | | } ~           9 | | | | | | | | | | | | | | | | | | | | | | | | | | | | | K       J Q ' | | | | | | 0   @.4.4.",
"4.4.4.>.  . 8 | | '             9 | | | | | | | | | | | | | | | | | | | | | | | | | | | | | W e @       J ' | | | | | q   @.4.4.",
"4.4.4.:.  # | | | `           & I | | | | | | | | | | | | | | | | | | | | | | | | | | | | | | | 0         W | | | | | 0   @.4.4.",
"4.4.4.2.g # | | | { t         @ a Y | | | | | | | | | | | | | | | | | | | | | | | | | | | | | Q #     e = W | | | | | 0   @.4.4.",
"4.4.4.<. .# | | | | _             # Y | | | | | | | | | | | | | | | | | | | | | | | | | | | | K       W 0 W | | | | | 0   @.4.4.",
"4.4.4.:.  # | | | | _ + y           9 | | | | | | | | | | | | | | | | | | | | | | | | | | | W 8     e ` Y _ | | | | | 0   @.4.4.",
"4.4.4.2.g . U | | | _ # } e         @ Y | | | | | | | | | | | | | | | | | | | | | | | | | Q 8     e _ | | | | | | | Y & d ;.4.4.",
"4.4.4.4.2.g # | | | } a | `           # a Y | | | | | | | | | | | | | | | | | | | | | | W 8       W | | | | | | | | 0   @.4.4.4.",
"4.4.4.4.4.:.# | | | | | | { i y           # Y | | | | | | | | | | | | | | | | | | | Q i 8       u _ | | | | | | | | 0 d ;.4.4.4.",
"4.4.4.4.4.:.o I | | | | | | | ' e           @ Y | | | | | | | | | | | | | | | | | Q 8     9 0   W | | | | | | | | | 0 @.4.4.4.4.",
"4.4.4.4.4.:.  # | | | | | | | | ' H e         # Y | | | | | | | | | | | | | | Q u 8     0 ! ^ 0 W | | | | | | | | | 0 @.4.4.4.4.",
"4.4.4.4.4.2.g # | | | | | | | | | | ` e         & a Y | | | | | | | | | | Q i 8         p | | J W | | | | | | | | | 0 f =.4.4.4.",
"4.4.4.4.4.4.:.o I | | | | | | | | | | ' J e         & a a a a s i i i i i 8           9 ! | | J W | | | | | | | | | 0   @.4.4.4.",
"4.4.4.4.4.4.2.g o I | | | | | | | | | | | Q                                       9 P ~ | | | K W | | | | | Y a ( | 0   @.4.4.4.",
"4.4.4.4.4.4.4.:.  # | | | | | | | | | | | ' e                             0 L 9 0 ! | | | | | ^ _ | | | | | 0   e ( 0   @.4.4.4.",
"4.4.4.4.4.4.4.:.  # | | | | | | | | | | | | Q = J H J e                 9 ! | K p | | | | | | | | | | | | Y & 3 $ W 0 d ;.4.4.4.",
"4.4.4.4.4.4.4.e.4 o I | | | | | | | | | | | Q 9 | | | ' J J H e       9 ! | | ^ ! | | | | | | | | | | | Y & 3 V 1 e & @.4.4.4.4.",
"4.4.4.4.4.4.4.5.a.3 # | | | | | | | | | | | ' I | | | | | | | ' 0 9 0 p | | | | | | | | | | | | | | | | 0 3 V S 1   d ;.4.4.4.4.",
"4.4.4.4.4.4.4.4.r.N - | | | | | | | | | | | | | | | | | | | | | i K _ _ | | | | | | | | | | | | | | | u x Z S S %   &.4.4.4.4.4.",
"4.4.4.4.4.4.4.4.4.S   | | | | | | ( t | | | | | | | | | | | | | P u | | | | | | | | | | | | | | | | | 0 c S S S 2 ..1.4.4.4.4.4.",
"4.4.4.4.4.4.4.4.4.S   8 | | | ( , ; X , t | | | | | | | | | | | ] ` | | | | | | | | | | | | | | | | | q c S g.l.$.1.4.4.4.4.4.4.",
"4.4.4.4.4.4.4.4.4.S     | | | ;         . < t | | | | | | | | | | | | | | | | | | | | | | | | | | | a O c S 9.r.u.4.4.4.4.4.4.4.",
"4.4.4.4.4.4.4.4.4.0.    | 8 8   $ b b b l   X t | | | | | | | | | | | | | | | | | | | | | | | | | a O j Z S 9.4.4.4.4.4.4.4.4.4.",
"4.4.4.4.4.4.4.4.4.4.v   |   v b m S S S A l   X t | | ( , t | | | | | | | | | | | | | | | | | Y : O j Z S g.u.4.4.4.4.4.4.4.4.4.",
"4.4.4.4.4.4.4.4.4.4.S   |   S S S S S S S A l   ; | ( ;   : | | | | | | | | | | | | Y : L | | P k % c S g.u.4.4.4.4.4.4.4.4.4.4.",
"4.4.4.4.4.4.4.4.4.4.0.  |   S S S S S S S S m   : ( ; $ l . t | | | | | | | Y : : , &   u | Y & c B d.l.9.4.4.4.4.4.4.4.4.4.4.4.",
"4.4.4.4.4.4.4.4.4.4.4.v 8   S S D q.z.S S S A l X ; $ m A l X t | | | Y : : 7 n 6   3 6 u | P 3 Z g.u.r.u.4.4.4.4.4.4.4.4.4.4.4.",
"4.4.4.4.4.4.4.4.4.4.4.S     S S F 4.5.q.z.S S A l $ B S S A l : | | Y & 3 n V S C n V k + : & 5 S 9.4.4.4.4.4.4.4.4.4.4.4.4.4.4.",
"4.4.4.4.4.4.4.4.4.4.4.S   v S S F 4.4.4.5.z.S S A m S S S S A z L | P 3 V S S S S S s.p.6   3 V f.u.4.4.4.4.4.4.4.4.4.4.4.4.4.4.",
"4.4.4.4.4.4.4.4.4.4.4.0.v 0.0.D t.4.4.4.4.8.S S S S D q.z.S S m u | P 5 S s.j.S S S G k.h   5 S 9.4.4.4.4.4.4.4.4.4.4.4.4.4.4.4.",
"4.4.4.4.4.4.4.4.4.4.4.4.S 4.4.t.4.4.4.4.4.5.z.S D q.r.4.8.S S m i Y 7 V s.y.i.w.h.s.w.y.O.  5 S 9.4.4.4.4.4.4.4.4.4.4.4.4.4.4.4.",
"4.4.4.4.4.4.4.4.4.4.4.4.0.4.4.4.4.4.4.4.4.4.5.z.F 4.4.4.8.S S m + & 5 s.y.4.4.4.i.y.4.4.,.#.V S 9.4.4.4.4.4.4.4.4.4.4.4.4.4.4.4.",
"4.4.4.4.4.4.4.4.4.4.4.4.4.4.4.4.4.4.4.4.4.4.4.5.8.4.4.4.5.q.q.%.6   5 h.4.4.4.4.4.4.4.4.4.f.s.w.u.4.4.4.4.4.4.4.4.4.4.4.4.4.4.4.",
"4.4.4.4.4.4.4.4.4.4.4.4.4.4.4.4.4.4.4.4.4.4.4.4.4.4.4.4.4.4.4.5.7.*.6.y.4.4.4.4.4.4.4.4.4.i.y.4.4.4.4.4.4.4.4.4.4.4.4.4.4.4.4.4."
};
